<svg xmlns="http://www.w3.org/2000/svg" width="1000" height="1140" viewBox="0 0 1000 1140"><title>灰葦村 道と探索地点</title><rect width="1000" height="1140" fill="#f9fbfb"/><g font-family="Yu Gothic,Meiryo,sans-serif" fill="#243637" font-size="18"><text x="50" y="50" font-size="28" font-weight="bold">灰葦村：道と探索地点</text><text x="50" y="85">プレイヤー用：探索可能エリア ／ 北が上。道の長さは道のり（配置は縮尺外）。</text><path d="M90 520Q230 550 160 690T170 900M730 520Q670 630 750 900" fill="none" stroke="#d9e9eb" stroke-width="45"/><path d="M790 400L470 400" stroke="#8d7d65" stroke-width="8"/><text x="630" y="380" text-anchor="middle" font-size="16" font-weight="bold">120ft</text><path d="M470 400L180 400" stroke="#8d7d65" stroke-width="8"/><text x="320" y="380" text-anchor="middle" font-size="16" font-weight="bold">60ft</text><path d="M470 400L300 180" stroke="#8d7d65" stroke-width="8"/><text x="425" y="280" text-anchor="middle" font-size="16" font-weight="bold">100ft</text><path d="M180 400L300 180" stroke="#8d7d65" stroke-width="8"/><text x="185" y="285" text-anchor="middle" font-size="16" font-weight="bold">100ft</text><path d="M470 400L470 610" stroke="#8d7d65" stroke-width="8"/><text x="500" y="510" text-anchor="middle" font-size="16" font-weight="bold">80ft</text><path d="M470 610L300 810" stroke="#8d7d65" stroke-width="8"/><text x="435" y="725" text-anchor="middle" font-size="16" font-weight="bold">100ft</text><path d="M300 180H85V810H300M790 400V900H300V810" fill="none" stroke="#bcad91" stroke-width="8"/><text x="105" y="640">西の踏み跡240ft</text><text x="530" y="935">南の外堤180ft</text><path d="M790 400H950" stroke="#bcad91" stroke-width="8"/><text x="850" y="370">東へ帰路</text><rect x="722" y="367" width="136" height="66" rx="5" fill="white" stroke="#466663" stroke-width="2"/><text x="790" y="393" text-anchor="middle" font-weight="bold">ASH-01</text><text x="790" y="420" text-anchor="middle" font-size="16">東の杭場</text><rect x="402" y="367" width="136" height="66" rx="5" fill="white" stroke="#466663" stroke-width="2"/><text x="470" y="393" text-anchor="middle" font-weight="bold">ASH-02</text><text x="470" y="420" text-anchor="middle" font-size="16">共同井戸</text><rect x="112" y="367" width="136" height="66" rx="5" fill="white" stroke="#466663" stroke-width="2"/><text x="180" y="393" text-anchor="middle" font-weight="bold">ASH-03</text><text x="180" y="420" text-anchor="middle" font-size="16">モーン家</text><rect x="232" y="147" width="136" height="66" rx="5" fill="white" stroke="#466663" stroke-width="2"/><text x="300" y="173" text-anchor="middle" font-weight="bold">ASH-04</text><text x="300" y="200" text-anchor="middle" font-size="16">共同墓地</text><rect x="402" y="577" width="136" height="66" rx="5" fill="white" stroke="#466663" stroke-width="2"/><text x="470" y="603" text-anchor="middle" font-weight="bold">ASH-05</text><text x="470" y="630" text-anchor="middle" font-size="16">堤の監視所</text><rect x="232" y="777" width="136" height="66" rx="5" fill="white" stroke="#466663" stroke-width="2"/><text x="300" y="803" text-anchor="middle" font-weight="bold">ASH-06</text><text x="300" y="830" text-anchor="middle" font-size="16">水没教会</text><text x="50" y="985" font-size="16">道幅は5ft以上。道を外れた浅い泥水は移動困難な地形（泥濘）。</text><text x="50" y="1015" font-size="16">小舟：外周の水路を一区間10分。ニム＋PC二人、往復可。</text><text x="50" y="1050" font-size="15" fill="#788c8b">エスカロン 第1部　0.3.0-dev</text></g></svg>